<?xml version="1.0"?>
<svg xmlns:rdf="http://www.w3.org/1999/02/22-rdf-syntax-ns#" xmlns="http://www.w3.org/2000/svg" xmlns:cc="http://web.resource.org/cc/" xmlns:xlink="http://www.w3.org/1999/xlink" xmlns:dc="http://purl.org/dc/elements/1.1/" xmlns:svg="http://www.w3.org/2000/svg" text-rendering="geometricPrecision" fill-rule="evenodd" xml:space="preserve" shape-rendering="geometricPrecision" clip-rule="evenodd" image-rendering="optimizeQuality" viewBox="0 0 88.7737 74.7902">
 <g id="Capa_x0020_1">
  <g id="_66587280">
   <polygon id="_66586176" points="20.451 74.79 66.063 74.79 88.774 35.412 68.328 0 22.729 0 0 39.367" fill="#A2D9F2"/>
   <polygon id="_66586584" points="44.403 33.306 54.613 15.622 66.039 35.412 83.912 35.438 65.911 4.2586 27.632 4.2586" fill="#D2CDE3"/>
   <polygon id="_66586200" points="61.163 35.412 54.666 24.16 48.17 35.412" fill="#D1CCE3"/>
   <polygon id="_66587160" points="40.683 35.412 23.954 6.437 5.1214 39.69 22.919 70.516 31.818 55.103 20.45 35.412" fill="#172980"/>
   <polygon id="_66586104" points="40.717 39.69 27.855 39.69 34.286 50.829" fill="#172980"/>
   <polygon id="_66585816" points="72.545 55.127 63.632 39.69 45.7 39.69 36.777 55.145 45.654 70.519 63.658 70.519" fill="#008BCD"/>
   <polygon id="_66586320" points="40.719 70.519 34.31 59.418 27.901 70.519" fill="#008BCD"/>
   <polygon id="_66586416" points="81.457 39.69 68.509 39.69 74.983 50.904" fill="#008ACD"/>
  </g>
 </g>
<metadata><rdf:RDF><cc:Work><dc:format>image/svg+xml</dc:format><dc:type rdf:resource="http://purl.org/dc/dcmitype/StillImage"/><cc:license rdf:resource="http://creativecommons.org/licenses/publicdomain/"/><dc:publisher><cc:Agent rdf:about="http://openclipart.org/"><dc:title>Openclipart</dc:title></cc:Agent></dc:publisher><dc:title>logo star 03</dc:title><dc:date>2010-05-08T12:08:56</dc:date><dc:description>clip art, clipart, logo, sign, star, symbol, </dc:description><dc:source>http://openclipart.org/detail/59281/logo-star-03-by-jantonalcor</dc:source><dc:creator><cc:Agent><dc:title>jantonalcor</dc:title></cc:Agent></dc:creator><dc:subject><rdf:Bag><rdf:li>clip art</rdf:li><rdf:li>clipart</rdf:li><rdf:li>logo</rdf:li><rdf:li>sign</rdf:li><rdf:li>star</rdf:li><rdf:li>symbol</rdf:li></rdf:Bag></dc:subject></cc:Work><cc:License rdf:about="http://creativecommons.org/licenses/publicdomain/"><cc:permits rdf:resource="http://creativecommons.org/ns#Reproduction"/><cc:permits rdf:resource="http://creativecommons.org/ns#Distribution"/><cc:permits rdf:resource="http://creativecommons.org/ns#DerivativeWorks"/></cc:License></rdf:RDF></metadata></svg>
